<svg version="1.1" id="Layer_1" xmlns="http://www.w3.org/2000/svg" xmlns:xlink="http://www.w3.org/1999/xlink" x="0px" y="0px"
	 width="100%" viewBox="0 0 1024 1024" enable-background="new 0 0 1024 1024" xml:space="preserve">
<path fill="#f0f2f8" opacity="1.000000" stroke="none" 
	d="
M75.468658,1025.000000 
	C80.412270,1022.957764 86.261703,1025.024536 92.819313,1023.083984 
	C88.575089,1019.132080 88.510681,1012.875793 81.916618,1010.710876 
	C86.655083,1009.168030 90.555305,1007.946106 94.768341,1007.892212 
	C110.260559,1007.694092 125.751671,1007.409485 141.243683,1007.192993 
	C142.921051,1007.169495 144.833954,1007.541626 145.694504,1005.735229 
	C148.022842,1000.847839 152.583588,998.226257 157.321472,994.320923 
	C147.864273,992.769836 146.566254,985.666626 144.475159,978.697510 
	C137.548248,955.611389 139.987228,932.735596 144.499146,909.613464 
	C150.840027,877.118408 162.520706,846.698303 177.510361,817.314758 
	C192.390045,788.146667 215.728134,768.193848 244.460373,753.795410 
	C256.372894,747.825684 268.422363,742.211365 281.460022,738.997559 
	C288.774017,737.194763 294.922272,738.737671 300.050598,744.291504 
	C300.810242,745.114197 301.408325,746.246216 303.446777,746.201721 
	C307.374634,737.361145 315.687439,732.575439 323.478546,727.233948 
	C326.964081,724.844360 326.461548,721.138794 326.643311,717.732727 
	C327.432739,702.938049 328.996033,688.237610 331.470886,673.625916 
	C332.300812,668.726196 334.697083,664.958557 338.628815,662.067810 
	C343.864258,658.218506 349.110809,654.384399 354.350555,650.540955 
	C357.431519,648.280945 361.008118,635.377563 359.324799,632.238586 
	C358.317505,630.360229 356.204681,629.805542 354.487427,628.851868 
	C350.772034,626.788574 349.429993,624.523926 351.260254,619.966858 
	C355.068146,610.485657 356.406616,600.382141 356.671997,590.179565 
	C356.786560,585.774414 355.077484,582.261108 351.596191,579.310974 
	C340.679749,570.060059 331.993317,558.947510 324.995667,546.482849 
	C322.695312,542.385254 322.551361,538.847656 325.261475,534.484558 
	C334.066620,520.309021 333.994415,520.013306 321.304504,509.548737 
	C315.488159,504.752350 313.494965,498.599762 312.877472,491.618958 
	C310.950653,469.835846 310.674957,448.083923 313.852936,426.362885 
	C314.921844,419.057281 319.607727,414.709900 325.104675,410.629150 
	C328.419800,408.168182 333.543579,407.102875 334.827606,403.255768 
	C336.087860,399.479858 333.110138,395.330353 332.247070,391.282593 
	C325.929474,361.653290 323.146667,331.793701 325.506317,301.479889 
	C326.956024,282.855865 329.072479,264.403900 334.764587,246.527969 
	C336.436340,241.277847 338.566162,236.224121 341.545227,231.547012 
	C347.923553,221.533127 355.579620,218.988937 366.768402,223.419937 
	C374.944580,226.657883 381.714752,232.112656 388.366547,237.676315 
	C404.370636,251.062347 418.512787,266.410339 433.582825,280.781311 
	C437.073425,284.110016 440.958618,287.029510 443.960815,290.878235 
	C444.989441,292.196899 446.484283,293.655182 448.070831,291.731720 
	C455.330872,282.930145 465.979034,281.365417 476.014130,278.671936 
	C486.481537,275.862335 497.311279,275.023529 508.036865,273.691071 
	C514.915588,272.836548 515.116699,272.399445 515.784729,265.356293 
	C517.810730,243.993805 519.949585,222.640625 522.276001,201.309052 
	C522.841553,196.123764 522.944092,192.044678 518.049377,188.192902 
	C511.342865,182.915436 510.410522,171.496231 514.815857,163.838104 
	C519.355774,155.945953 528.618286,151.960114 537.510620,154.072159 
	C546.367920,156.175903 552.103271,163.575333 552.350830,173.005692 
	C552.533081,179.944870 550.646790,185.897491 544.530029,189.800903 
	C542.102234,191.350250 541.992310,193.486588 542.216736,195.888550 
	C543.330994,207.814194 544.390503,219.745331 545.580444,231.663422 
	C546.736877,243.246613 548.220703,254.800583 549.169495,266.399384 
	C549.573975,271.344360 551.590515,273.442474 556.533936,273.791260 
	C573.533997,274.990662 590.197021,277.876465 606.254517,283.934967 
	C610.993042,285.722809 614.695007,288.385254 617.058289,292.427246 
	C619.725952,292.334900 620.666138,290.571106 621.965088,289.361633 
	C640.495667,272.107117 657.900269,253.664795 677.114380,237.129715 
	C682.436523,232.549667 688.024536,228.350464 694.204224,225.009872 
	C707.722473,217.702301 717.615601,220.662750 724.851501,234.265747 
	C730.393860,244.685135 733.119019,256.045410 735.064819,267.555511 
	C738.343201,286.948059 740.677063,306.500824 740.043457,326.179993 
	C739.271912,350.144165 737.556702,374.073639 730.771240,397.281982 
	C729.528503,401.532623 730.085144,404.822144 734.283203,406.956696 
	C734.725159,407.181427 735.085388,407.569000 735.529846,407.786377 
	C747.989929,413.880005 751.755127,424.481079 752.417358,437.623016 
	C753.366516,456.458862 753.693848,475.186249 751.481140,493.963898 
	C750.815369,499.613770 749.197571,504.250641 744.878540,507.932129 
	C743.105103,509.443726 741.542236,511.204407 739.752991,512.695068 
	C730.854370,520.108704 731.356262,517.409302 736.478699,528.847961 
	C736.886719,529.759094 737.201050,530.794006 737.852051,531.501831 
	C743.831665,538.002991 741.437012,543.973694 737.313904,550.368164 
	C731.230103,559.803162 725.005310,569.344727 716.204041,576.171814 
	C707.339600,583.047791 707.362610,591.476501 708.697876,600.720154 
	C709.695923,607.629089 711.061218,614.528259 713.521851,621.083069 
	C714.813721,624.524658 713.615295,626.288391 710.870789,628.041016 
	C708.346436,629.653076 704.469910,630.602844 705.247803,634.751892 
	C706.252686,640.111145 704.724731,646.339172 710.207703,650.304260 
	C715.068237,653.819153 719.761047,657.584351 724.768127,660.873413 
	C730.546631,664.669128 733.359253,670.066406 734.044800,676.651978 
	C735.542603,691.040222 737.022095,705.434998 738.120178,719.856812 
	C738.400513,723.539001 739.217590,726.294922 742.486816,728.109192 
	C743.210999,728.511108 743.861877,729.048828 744.532654,729.542847 
	C751.073425,734.359436 758.521729,738.283508 760.895142,747.032776 
	C761.894470,746.668396 762.487671,746.642212 762.721313,746.339050 
	C768.520569,738.812256 776.057861,737.035461 784.988586,739.321655 
	C798.161926,742.694031 810.385437,748.341553 822.303406,754.714844 
	C842.438538,765.482300 861.158386,777.940308 874.647095,797.035522 
	C885.784302,812.801941 893.886719,830.106934 901.619934,847.657104 
	C913.746887,875.178894 920.198364,904.207581 923.932251,933.841553 
	C926.143311,951.389465 923.237000,968.703613 918.612244,985.697510 
	C917.109802,991.218262 912.376526,992.588257 906.649841,994.124939 
	C911.735474,998.255859 916.776794,1001.378845 920.174866,1006.288635 
	C921.165955,1007.720703 923.632935,1007.054932 925.448792,1007.081787 
	C941.274597,1007.315979 957.101990,1007.465576 972.926086,1007.779114 
	C979.802795,1007.915344 980.036499,1008.406372 977.741699,1014.743042 
	C975.524231,1020.866211 977.041504,1022.849670 985.654114,1024.817139 
	C682.645752,1025.000000 379.291534,1025.000000 75.468658,1025.000000 
M499.775757,530.440430 
	C496.622559,525.937561 493.372620,521.498596 490.346100,516.912170 
	C487.819733,513.083618 485.396942,513.247131 482.369873,516.355713 
	C479.457184,519.346802 476.180695,522.025757 472.218842,523.493713 
	C469.332520,524.563110 467.572876,526.469666 466.246124,529.114868 
	C461.093658,539.387695 455.704681,549.561401 452.834167,560.789246 
	C451.790253,564.872498 449.429657,565.690308 446.305817,563.292480 
	C434.021545,553.863220 420.693024,545.820923 409.198486,535.344910 
	C406.680756,533.050293 404.574615,530.459412 403.897522,527.066467 
	C403.067719,522.908264 400.564789,521.590942 396.499237,521.200256 
	C386.976868,520.285400 377.056641,521.167053 368.359985,515.809998 
	C367.308929,515.162598 365.918396,515.003052 365.125031,516.039062 
	C360.807129,521.677185 358.086578,528.026855 356.944214,535.250732 
	C361.841095,532.466919 366.254181,529.324158 370.515900,525.988159 
	C373.385468,523.741882 375.868835,523.134705 378.855103,525.947632 
	C388.206696,534.756287 398.302124,542.678101 408.718506,550.181030 
	C411.313721,552.050354 412.409882,554.366394 412.028656,557.455322 
	C409.981903,574.037903 409.862488,590.626526 411.168762,607.290833 
	C411.529572,611.893799 412.988708,614.624451 417.117706,616.568054 
	C441.701141,628.140259 466.663818,638.733643 492.777954,646.402771 
	C513.186646,652.396179 533.928955,654.479553 554.963501,650.594238 
	C567.907349,648.203369 580.467407,644.295471 592.833496,639.734802 
	C611.444702,632.870911 629.777100,625.375610 647.527832,616.501770 
	C650.070129,615.230774 652.594543,613.961792 652.796875,610.483582 
	C653.270447,602.343689 654.298035,594.213501 654.328247,586.076477 
	C654.362183,576.935242 653.501892,567.792664 653.125366,558.646790 
	C653.005493,555.735535 652.299194,552.672180 655.540710,550.575806 
	C666.065002,543.769226 675.692627,535.775391 684.773315,527.192871 
	C688.852478,523.337524 691.977722,523.716125 695.969482,526.968628 
	C699.363464,529.734009 702.612122,532.883789 707.740417,534.727966 
	C707.297546,528.781677 704.296997,524.531311 702.296570,519.956970 
	C700.554260,515.972961 698.088623,514.067688 693.751648,516.907654 
	C691.508606,518.376465 688.818604,518.921387 686.165466,519.244324 
	C680.056519,519.987976 673.944763,520.735107 667.816223,521.280151 
	C664.242920,521.597900 661.842651,522.850403 661.217957,526.730835 
	C660.637390,530.337280 658.577820,533.126831 655.695984,535.357727 
	C652.139282,538.111206 648.691650,541.007385 645.101685,543.715820 
	C636.855774,549.936829 628.623291,556.180054 620.243958,562.218018 
	C615.596436,565.566956 613.096252,564.944214 611.907043,560.409180 
	C608.921753,549.025024 603.230652,538.816589 598.205627,528.316528 
	C597.479248,526.798767 596.544922,525.324280 594.853821,524.768921 
	C589.310425,522.948792 584.961121,519.295715 580.752136,515.508240 
	C578.284607,513.287781 576.436035,513.449951 574.639832,516.102478 
	C571.651367,520.515869 568.724182,524.972107 565.658630,529.331238 
	C564.288269,531.279907 564.711487,532.882812 565.712097,534.842834 
	C571.317200,545.822327 569.345642,556.684448 560.708008,565.383240 
	C555.422119,570.706543 549.256409,574.496460 542.354309,577.163879 
	C538.274475,578.740662 537.645874,581.877258 537.887207,585.636475 
	C538.127686,589.383240 537.139709,593.941833 541.916443,595.420227 
	C552.415039,598.669556 562.116211,604.194519 572.960999,606.357300 
	C582.982300,608.355896 591.874207,606.484314 598.444031,597.880432 
	C600.161133,595.631714 601.764771,593.286621 603.604004,591.143250 
	C606.229980,588.083130 609.441284,586.336975 613.206299,589.053223 
	C616.995911,591.787048 616.317383,595.363281 614.146179,598.786438 
	C604.895691,613.370544 585.698303,623.680176 567.668701,617.824524 
	C560.434326,615.474854 553.224976,612.990417 545.486755,612.161560 
	C528.607605,610.353638 512.311890,612.361694 496.285126,617.766357 
	C487.398438,620.763184 478.556366,620.214844 470.062531,616.034180 
	C461.646973,611.892090 454.743103,606.012268 449.963013,597.881409 
	C448.100769,594.713684 447.995605,591.352051 451.263367,588.937744 
	C454.543243,586.514465 457.604095,587.782532 460.215271,590.335938 
	C461.394836,591.489441 462.379974,592.860596 463.348022,594.208618 
	C472.350128,606.744812 479.705048,609.343628 494.844513,605.695007 
	C503.635193,603.576477 511.546692,599.052429 520.275330,596.790344 
	C523.780945,595.881775 526.990967,594.486389 526.749329,589.870605 
	C526.491150,584.939392 528.332275,579.503784 521.573364,576.839111 
	C514.894104,574.205750 508.852051,570.383545 503.873871,564.963562 
	C495.231598,555.554260 493.656006,545.665588 499.335968,534.288940 
	C499.847961,533.263550 500.681183,532.323914 499.775757,530.440430 
M276.110626,817.487976 
	C280.881592,814.706787 280.200012,810.284119 279.397919,805.982727 
	C276.031830,787.931396 277.022583,770.232849 283.274475,752.883057 
	C283.846802,751.294861 285.165771,749.630920 283.909241,747.682312 
	C283.420959,747.571655 282.928711,747.323181 282.479004,747.384888 
	C281.334137,747.541809 280.191406,747.776917 279.077393,748.086792 
	C263.514191,752.416199 249.717209,760.542908 235.695358,768.210022 
	C214.298660,779.909851 198.439117,796.813477 186.927795,818.265259 
	C167.852570,853.812439 154.422577,891.134644 149.530869,931.337219 
	C149.205734,934.009277 149.683517,936.184265 151.408493,938.271301 
	C155.583862,943.322937 160.167603,944.442078 167.035934,941.049561 
	C181.836884,933.738770 195.823029,925.002136 209.632294,915.981445 
	C212.296036,914.241455 213.615707,911.622009 214.834946,908.839905 
	C220.046722,896.947266 225.128250,884.992249 230.618088,873.228271 
	C235.762970,862.203491 241.348526,851.401367 250.046005,842.570923 
	C258.340637,834.149597 266.213440,825.298035 276.110626,817.487976 
M887.376648,837.049011 
	C881.089905,822.645569 873.765747,808.805664 863.825195,796.570312 
	C844.401306,772.662292 817.566589,760.153564 789.811768,749.210205 
	C786.874878,748.052185 783.722473,746.473206 780.337219,747.726746 
	C780.265320,748.287476 780.131409,748.634338 780.198608,748.936462 
	C780.414307,749.906738 780.645203,750.881287 780.974487,751.817566 
	C786.587585,767.778564 789.936096,784.327271 785.873657,800.848755 
	C783.145142,811.945312 787.810913,817.257385 795.328247,823.624084 
	C807.096985,833.591492 818.626892,844.023438 826.432007,857.810181 
	C835.319153,873.508118 842.631653,889.923889 849.288269,906.634399 
	C851.316223,911.725403 854.318542,915.468201 858.940735,918.213257 
	C869.252136,924.336975 879.456482,930.641602 889.793884,936.720398 
	C893.227173,938.739319 896.820129,940.594849 900.539185,941.996826 
	C908.041687,944.824951 916.077942,938.936279 915.201416,931.679077 
	C911.234375,898.832642 902.161499,867.497070 887.376648,837.049011 
M639.512329,924.062073 
	C638.492371,926.150085 637.326782,928.180481 636.475586,930.335144 
	C629.622009,947.683533 624.850159,965.719604 619.037781,983.412598 
	C616.613831,990.791199 614.132385,998.165466 612.521606,1005.921448 
	C614.709045,1007.401672 616.915222,1007.023987 619.009827,1007.040222 
	C636.657898,1007.177307 654.307007,1007.221497 671.953857,1007.443970 
	C675.233276,1007.485291 676.977173,1006.147949 677.583862,1003.101624 
	C678.510010,998.451416 680.311829,994.222839 683.259216,990.475830 
	C687.477234,985.113464 691.671021,979.731384 695.816528,974.312927 
	C713.821960,950.778503 731.754700,927.188171 749.854858,903.726929 
	C752.493164,900.307190 753.100464,897.107544 751.631042,893.109009 
	C748.417358,884.364502 745.531738,875.499390 742.308228,866.758667 
	C739.731750,859.772522 736.583191,858.734253 730.076233,862.779175 
	C711.137146,874.552307 692.116638,886.205872 673.433533,898.375366 
	C661.743713,905.989685 650.036316,913.694824 639.512329,924.062073 
M335.675018,930.855164 
	C350.889313,950.464722 366.081879,970.091187 381.337402,989.668579 
	C384.162872,993.294495 386.297272,997.268433 387.044128,1001.740356 
	C387.739990,1005.906738 389.851166,1007.130127 393.865906,1007.098633 
	C411.694305,1006.958984 429.524628,1007.067627 447.354156,1007.038208 
	C448.932953,1007.035583 450.724487,1007.528259 452.148743,1005.708557 
	C452.011871,1004.908325 451.952209,1003.910950 451.666260,1002.983215 
	C444.949554,981.194153 438.349213,959.367432 431.399261,937.652771 
	C428.802185,929.538330 425.113617,922.119690 417.638947,916.816650 
	C400.381195,904.572510 383.100098,892.395996 364.984833,881.431580 
	C354.441925,875.050415 344.137024,868.271484 333.522430,862.015259 
	C328.313080,858.944885 325.654663,859.991028 323.414948,865.648621 
	C319.923737,874.467773 316.964813,883.497375 313.482727,892.320312 
	C311.808350,896.562927 312.559174,899.958557 315.216492,903.453064 
	C321.971771,912.336853 328.562714,921.345642 335.675018,930.855164 
M454.501373,516.828186 
	C465.625977,518.818970 474.668579,515.069641 482.343353,507.053528 
	C485.212372,504.056824 488.565491,501.522736 491.705994,498.787018 
	C499.121429,492.327423 507.417572,488.489563 517.586121,488.856873 
	C527.904541,489.229645 538.250854,489.148468 548.576538,488.905609 
	C557.410095,488.697845 564.845154,491.621704 571.351562,497.442352 
	C576.814148,502.329285 582.402405,507.075745 587.935364,511.883972 
	C591.985596,515.403748 596.520874,517.331055 602.060791,517.058533 
	C614.203064,516.461182 626.372375,516.354980 638.503662,515.609436 
	C653.783447,514.670410 669.091431,513.933472 684.265442,511.694183 
	C693.332092,510.356171 703.757874,500.194061 704.591553,491.527069 
	C705.164734,485.568329 705.466858,479.575012 705.658325,473.589722 
	C706.170227,457.585449 705.003418,441.654083 703.827026,425.697083 
	C702.687195,410.235352 697.129700,403.629700 681.595947,402.319397 
	C665.509705,400.962433 649.379028,400.137207 633.272034,399.018860 
	C592.046692,396.156433 550.782837,394.029510 509.453583,395.302002 
	C479.335968,396.229279 449.229736,397.758148 419.148376,399.527832 
	C405.874390,400.308746 392.504913,400.576935 379.365204,402.876160 
	C366.590668,405.111481 362.134186,410.525085 361.296967,423.503967 
	C359.892853,445.272461 358.358734,467.011902 360.148743,488.863556 
	C361.039825,499.741455 369.863586,510.491699 380.778961,511.820618 
	C404.927094,514.760559 429.189850,516.226440 454.501373,516.828186 
M583.969727,787.373840 
	C578.559814,796.548645 573.132507,805.713257 567.747742,814.902832 
	C565.227112,819.204285 561.556213,821.547302 556.638794,822.529236 
	C551.824890,823.490479 547.023438,823.193359 542.212891,823.263672 
	C539.079285,823.309570 537.048828,824.275024 537.063782,827.806274 
	C537.090515,834.131775 537.089966,840.457703 537.042664,846.783081 
	C537.022339,849.497192 538.246521,850.715149 540.974915,850.678223 
	C545.468933,850.617432 549.965088,850.646973 554.459595,850.702087 
	C584.194397,851.066895 578.107422,847.881104 601.167969,864.160156 
	C603.608643,865.883057 605.346313,865.831543 606.787354,863.067444 
	C607.632996,861.445312 608.682861,859.928040 609.501221,858.293640 
	C621.813416,833.703857 638.011414,812.196594 659.722168,795.089233 
	C662.542114,792.867249 662.785950,790.639160 660.740417,787.846313 
	C652.676086,776.835632 644.633850,765.808716 636.608398,754.769653 
	C635.266296,752.923462 633.860352,752.246765 631.535828,753.283569 
	C620.748596,758.094971 609.858643,762.661804 598.637695,766.397949 
	C596.404175,767.141663 594.511414,768.325928 593.300659,770.592712 
	C590.401245,776.020996 587.304688,781.343994 583.969727,787.373840 
M480.090851,853.342773 
	C484.065826,851.422241 488.272247,850.682922 492.670532,850.700073 
	C502.660248,850.739014 512.651733,850.599121 522.639465,850.743347 
	C526.463623,850.798523 528.184875,849.414551 527.976501,845.503662 
	C527.808411,842.349854 527.963196,839.178772 527.977051,836.015320 
	C528.032166,823.447998 528.032654,823.328247 515.300537,823.314636 
	C506.428314,823.305115 499.751282,820.357910 495.297974,812.067871 
	C488.213226,798.879272 480.452698,786.053711 472.983917,773.071228 
	C471.479126,770.455505 470.003662,767.746582 466.933441,766.705566 
	C455.575439,762.854431 444.526154,758.249451 433.642456,753.234314 
	C431.521942,752.257202 429.907898,752.530518 428.472992,754.526001 
	C420.408844,765.740173 412.371002,776.975525 404.123901,788.054565 
	C401.644562,791.385254 402.745789,793.183655 405.594879,795.357300 
	C413.828735,801.639038 421.103455,808.952209 427.789307,816.855164 
	C439.340546,830.509338 449.566681,845.047302 457.014374,861.377197 
	C458.958374,865.639709 461.104645,866.307800 464.925110,863.441833 
	C469.575134,859.953491 474.558441,856.909424 480.090851,853.342773 
M779.587158,885.969604 
	C786.184143,898.298584 792.712830,910.664856 799.406128,922.941345 
	C802.900757,929.351074 805.966370,936.219421 812.489990,940.289673 
	C838.243225,956.357239 865.098145,970.330444 893.053772,982.161255 
	C897.036682,983.846802 901.219971,985.025024 905.651245,984.899292 
	C908.013245,984.832275 909.989136,984.127075 910.731506,981.684265 
	C913.963928,971.047974 916.173157,960.245239 916.161743,948.932251 
	C901.402771,953.039734 899.928955,952.924255 886.226990,945.374451 
	C877.771301,940.715393 869.484436,935.750549 861.040649,931.069214 
	C850.205627,925.062317 841.848572,917.238770 838.086060,904.798035 
	C834.855774,894.116516 828.643921,884.618042 824.209229,874.394348 
	C820.192871,865.135132 815.209656,856.607422 808.208496,849.271118 
	C798.886719,839.503113 789.154724,830.175659 778.903809,821.390808 
	C778.065063,820.672119 777.311646,819.602783 775.532898,820.047729 
	C772.823059,829.585510 770.174316,839.330139 767.265320,848.996460 
	C765.364258,855.313660 766.440308,861.269165 769.209045,866.901855 
	C772.290466,873.170593 775.880798,879.189270 779.587158,885.969604 
M260.644592,932.109558 
	C272.132019,910.881470 283.686768,889.689392 295.064789,868.402832 
	C298.366089,862.226501 299.586823,855.649170 297.536224,848.636780 
	C295.157166,840.501099 293.080780,832.277100 290.837799,824.101135 
	C290.362091,822.367004 290.054291,820.522278 288.657135,819.272766 
	C287.371704,819.097717 286.753876,819.970947 286.054840,820.641846 
	C279.087891,827.327698 271.940521,833.839661 265.225250,840.770020 
	C257.712830,848.523254 250.003876,856.141724 245.078140,866.042419 
	C237.661560,880.949768 230.407974,895.936768 224.148102,911.359558 
	C221.699600,917.391968 217.856506,921.872192 212.634109,925.349792 
	C199.874008,933.846802 186.578888,941.448425 172.999573,948.545654 
	C165.900970,952.255859 158.590958,953.656921 151.051666,949.629639 
	C150.343124,949.251160 149.532257,948.898560 148.417923,949.928894 
	C148.511063,956.610107 149.839523,963.424561 151.200333,970.239685 
	C154.158478,985.054504 153.506485,988.785217 171.755554,981.751831 
	C199.460159,971.074219 225.585098,957.108459 250.848831,941.536926 
	C254.582733,939.235413 257.732056,936.308105 260.644592,932.109558 
M603.826904,662.364014 
	C597.226746,666.864685 590.778809,671.611084 583.994263,675.814209 
	C570.396606,684.238220 556.476807,692.024475 541.003357,696.688721 
	C535.180237,698.443970 529.698669,698.402832 523.888367,696.727661 
	C506.539490,691.725891 491.199036,682.720154 476.238556,673.033447 
	C457.625153,660.981384 440.296814,647.183044 423.253845,633.023499 
	C421.692902,631.726685 420.366455,629.771423 417.835571,629.931152 
	C417.101990,631.267700 417.944183,632.253296 418.404724,633.253479 
	C427.644165,653.319763 439.568512,671.729065 452.980072,689.219421 
	C456.101501,693.290161 459.980621,696.230591 464.921661,697.848206 
	C482.212006,703.508850 499.820465,707.533264 518.024414,708.764587 
	C545.092773,710.595337 571.485291,707.200562 597.242432,698.739868 
	C602.509644,697.009705 607.471069,694.872986 610.910095,690.126221 
	C621.754517,675.157898 632.601135,660.188049 641.019653,643.663696 
	C643.120728,639.539612 645.969421,635.610718 646.553467,630.875061 
	C646.168823,630.558350 645.784180,630.241638 645.399536,629.924866 
	C631.732971,640.597717 618.066467,651.270569 603.826904,662.364014 
M488.048004,859.192200 
	C485.068298,859.273926 482.626160,860.729370 480.306488,862.365967 
	C475.818176,865.532776 471.446167,868.866150 466.925171,871.984314 
	C464.203888,873.861145 463.547089,875.641846 464.928192,879.029541 
	C472.985046,898.792542 479.156586,919.130005 482.514801,940.263367 
	C483.751831,948.047852 485.128204,955.810242 486.633026,964.719177 
	C489.154022,960.810730 490.988251,957.887329 492.900208,955.015747 
	C505.061768,936.751038 501.926941,938.944336 521.750793,938.767761 
	C521.917358,938.766296 522.085571,938.748779 522.250183,938.765991 
	C526.592407,939.218689 528.113281,937.206726 528.090271,932.938965 
	C527.968262,910.287781 527.928223,887.634827 528.105408,864.984375 
	C528.142212,860.275757 526.349792,859.020691 521.918152,859.115784 
	C510.930634,859.351685 499.934235,859.174011 488.048004,859.192200 
M537.012695,873.514832 
	C537.014282,893.335205 537.091858,913.156006 536.957458,932.975464 
	C536.928223,937.285095 538.488525,939.051880 542.817627,938.781860 
	C546.466858,938.554199 550.145142,938.843140 553.806946,938.754639 
	C558.856262,938.632690 562.829590,940.201111 565.473206,944.850403 
	C567.773865,948.896545 570.441833,952.738342 573.034851,956.611938 
	C574.432007,958.698853 575.228455,961.321716 578.195007,963.025085 
	C580.254395,951.387756 581.984924,940.257507 584.231079,929.232361 
	C587.626465,912.566406 592.809143,896.402527 599.301758,880.696045 
	C601.064636,876.431396 600.804749,873.608887 596.677979,871.083618 
	C592.854919,868.744019 589.290405,865.955078 585.750793,863.186523 
	C581.889282,860.166321 577.655884,858.961731 572.745911,859.130188 
	C565.259033,859.386902 557.756409,859.144348 550.262573,859.253113 
	C535.753296,859.463562 536.989319,856.718140 537.012695,873.514832 
M344.170135,309.513397 
	C343.520660,327.615540 345.626190,345.401825 350.229279,362.911133 
	C351.972137,369.540558 354.518188,375.868561 357.289856,382.110291 
	C358.726440,385.345520 360.586334,385.698181 362.633514,382.546265 
	C363.178009,381.707916 363.555298,380.699707 364.260406,380.036285 
	C372.340271,372.434418 372.209167,364.524872 368.010254,354.359100 
	C360.903442,337.153320 358.866425,318.612305 359.194489,299.998871 
	C359.350800,291.131104 359.604034,282.160706 362.949860,273.225342 
	C374.112793,288.208313 385.394257,302.937195 395.556885,318.763855 
	C390.653992,320.605194 386.591858,317.266998 382.403015,319.205383 
	C382.591125,320.069000 382.565338,320.792267 382.885681,321.295013 
	C387.550995,328.616577 392.806885,335.510498 398.858032,341.720947 
	C401.950165,344.894501 405.861603,344.661407 409.355652,342.207397 
	C413.440552,339.338409 417.238251,336.063232 421.284851,333.136139 
	C424.627960,330.717926 425.028198,328.131317 422.880249,324.616699 
	C417.321320,315.521088 411.973297,306.296844 406.517273,297.138092 
	C396.800842,280.827545 384.831787,266.351227 370.405487,254.034119 
	C360.419647,245.508240 354.786774,247.282990 351.125641,259.739807 
	C346.449829,275.649139 344.375000,291.957733 344.170135,309.513397 
M698.137329,376.418945 
	C700.560303,379.267365 701.655212,383.176819 705.133911,385.505035 
	C705.726318,384.867706 706.316528,384.477905 706.558472,383.933350 
	C708.315063,379.979889 710.285095,376.091064 711.664917,372.005280 
	C722.836792,338.924744 722.315979,305.286194 716.117371,271.431061 
	C715.010071,265.383087 713.889343,259.287476 711.218872,253.664124 
	C708.699829,248.359756 706.096252,247.441910 700.821289,249.791367 
	C697.428223,251.302597 694.564087,253.580078 691.821716,256.028351 
	C669.800598,275.688141 655.704529,301.110962 640.931641,326.039581 
	C639.713440,328.095367 640.226990,329.908203 642.012695,331.348907 
	C646.548279,335.008057 650.975647,338.826172 655.725098,342.186707 
	C658.901855,344.434479 662.845886,345.167938 665.810364,341.986694 
	C671.367798,336.022858 676.475098,329.645508 680.930237,322.787292 
	C681.572083,321.799255 682.093140,320.664917 681.269836,319.532928 
	C680.444214,318.397705 679.258728,318.736023 678.076904,318.855011 
	C675.362122,319.128418 672.637573,320.119965 668.817322,318.816193 
	C678.964294,302.393768 690.961609,287.929443 702.165100,271.230927 
	C704.399841,279.532990 704.795227,286.437317 705.237854,293.307434 
	C706.717285,316.269775 702.902466,338.519257 694.897217,359.936676 
	C692.469360,366.432159 692.615662,371.261963 698.137329,376.418945 
M684.605835,714.088501 
	C673.715210,725.888062 661.755310,736.393005 647.798279,744.477966 
	C644.808472,746.209961 643.174438,748.231995 645.719666,751.654053 
	C655.746765,765.135315 665.700378,778.671265 675.718567,792.159180 
	C678.081482,795.340515 680.515869,794.767761 682.469604,791.777222 
	C684.649414,788.440552 686.610107,784.957092 688.588989,781.493408 
	C698.655273,763.873535 708.704590,746.250671 716.973328,727.672729 
	C718.916687,723.306396 719.032654,719.591125 716.304260,715.518738 
	C713.440552,711.244507 711.167725,706.579285 708.487305,702.175903 
	C706.364685,698.688965 704.973267,694.694397 701.292664,691.294434 
	C696.417725,699.405518 691.514160,707.073059 684.605835,714.088501 
M412.682404,741.878845 
	C392.623383,729.167114 376.215027,712.759521 363.305084,691.612427 
	C356.818054,701.487122 351.470337,710.628357 346.633789,720.065674 
	C345.570892,722.139709 346.589203,724.341003 347.468323,726.322876 
	C357.477234,748.886963 369.358246,770.461304 382.227142,791.495605 
	C385.485352,796.821045 386.559875,796.731567 390.287109,791.633179 
	C399.819794,778.593811 409.298584,765.514893 418.770172,752.431030 
	C419.824402,750.974731 421.080414,749.563416 421.065918,747.009460 
	C418.633850,745.519287 415.967377,743.885376 412.682404,741.878845 
M497.343628,714.320679 
	C493.902924,713.747986 490.462555,713.173340 487.021423,712.603271 
	C485.214325,712.303894 483.455017,711.968445 481.763702,713.206299 
	C477.498718,716.328064 474.041473,724.706848 475.642700,729.663696 
	C481.679108,748.350403 488.188354,766.861877 497.418793,784.285767 
	C499.446228,788.112854 502.424011,790.125671 506.761963,790.838379 
	C522.323303,793.394836 537.879822,793.035645 553.495605,791.525757 
	C561.296326,790.771484 566.249756,787.368591 569.713440,779.861938 
	C576.632996,764.865601 582.237305,749.432617 587.868164,733.952087 
	C590.424805,726.923218 588.870728,721.463989 585.013123,715.767334 
	C582.922546,712.680115 580.420288,711.649292 576.962708,712.452576 
	C570.644409,713.920715 564.260254,714.970581 557.822021,715.773682 
	C537.880371,718.261292 518.014771,717.963867 497.343628,714.320679 
M459.298248,944.461487 
	C459.972168,948.558716 460.653381,952.654724 461.318726,956.753296 
	C463.823975,972.185730 465.076965,987.753052 466.309814,1003.321838 
	C466.431946,1004.864441 466.476562,1006.645630 468.389984,1006.786072 
	C473.941681,1007.193542 479.515472,1007.436462 485.308746,1006.543884 
	C485.015503,1004.228271 484.877136,1002.590820 484.593628,1000.978882 
	C480.306641,976.605469 476.596619,952.111633 471.564178,927.892639 
	C463.314880,888.192078 447.337463,851.909485 420.844757,820.761169 
	C414.471954,813.268494 407.280487,806.552490 399.411957,800.608032 
	C397.873383,799.445679 396.261902,798.595154 394.641602,800.613708 
	C393.173370,802.442749 392.909149,804.151489 394.834473,805.837097 
	C395.459564,806.384399 396.000916,807.026306 396.613037,807.589722 
	C421.696564,830.679993 437.078491,859.665161 447.463196,891.625366 
	C452.970856,908.575806 455.741699,926.174377 459.298248,944.461487 
M621.483948,852.929016 
	C612.768799,869.271667 605.326477,886.144043 599.601196,903.791321 
	C589.115479,936.111755 586.878113,970.079773 579.518738,1003.019897 
	C578.889526,1005.835938 580.287415,1007.018188 583.027344,1007.059265 
	C587.023743,1007.119141 591.020813,1007.221863 595.013977,1007.392029 
	C597.979553,1007.518372 598.587769,1005.824829 598.697937,1003.297241 
	C599.903748,975.642334 604.175964,948.404846 609.702576,921.318054 
	C616.097595,889.975037 627.116577,860.586853 645.358215,834.096252 
	C652.206787,824.150635 660.451111,815.482971 669.047485,807.091064 
	C670.481567,805.691101 672.935059,804.270081 670.614868,801.773987 
	C668.623901,799.631836 666.468567,800.135986 664.413391,801.838562 
	C663.772156,802.369873 663.114563,802.881836 662.458069,803.394470 
	C645.365112,816.740784 632.534607,833.622803 621.483948,852.929016 
M382.760071,539.738159 
	C381.360748,538.558899 379.941254,537.402710 378.566284,536.195618 
	C375.782379,533.751648 373.037842,533.627991 370.034821,535.938721 
	C362.124573,542.025513 354.156464,548.037659 346.174438,554.030334 
	C343.166016,556.289062 342.767700,558.682983 345.295197,561.576477 
	C360.446655,578.921875 378.580505,592.598083 398.134277,604.515442 
	C401.369507,606.487244 403.203857,605.489319 403.005859,601.577515 
	C402.323853,588.100891 402.650421,574.642029 403.753540,561.202759 
	C404.029816,557.837097 402.679810,555.617554 400.045258,553.616882 
	C394.351166,549.292847 388.859039,544.702881 382.760071,539.738159 
M717.462402,553.060181 
	C710.186890,547.510925 702.861633,542.025208 695.658325,536.383728 
	C692.396362,533.829041 689.575928,533.745911 686.318359,536.489868 
	C679.578186,542.167419 672.724304,547.718811 665.752075,553.108337 
	C662.406067,555.694763 660.913391,558.684998 661.293213,562.941772 
	C662.433044,575.714355 662.621277,588.493408 661.420410,601.295166 
	C660.973572,606.058594 662.668091,606.947266 667.080994,604.242310 
	C686.179321,592.535645 703.579590,578.719482 718.820190,562.233276 
	C721.961182,558.835693 722.429199,556.027283 717.462402,553.060181 
M754.286438,945.745239 
	C744.831604,958.390076 735.377930,971.035767 725.921570,983.679504 
	C721.743164,989.266113 717.248535,994.647827 713.472778,1000.494080 
	C710.249573,1005.484802 711.616943,1007.415955 717.450256,1007.280334 
	C730.913513,1006.967224 744.377991,1006.848999 757.834534,1007.451050 
	C760.332031,1007.562805 762.070618,1007.017517 762.791016,1004.453735 
	C767.269714,988.512512 773.011536,972.708679 768.633179,955.725525 
	C766.921143,949.084534 766.099487,942.138733 762.581177,935.567871 
	C759.013855,938.528442 757.025391,941.987000 754.286438,945.745239 
M294.947235,972.797180 
	C296.250427,982.516663 298.071503,992.112976 300.757904,1001.572632 
	C301.997345,1005.937195 304.287598,1007.249512 308.621552,1007.165771 
	C320.767731,1006.931030 332.921936,1007.141846 345.071411,1007.022156 
	C347.584290,1006.997437 350.975098,1008.308350 352.368927,1005.421997 
	C353.842957,1002.369507 351.250763,999.817078 349.645538,997.329346 
	C349.286469,996.772766 348.828949,996.279358 348.413269,995.759705 
	C334.897705,978.861572 321.919373,961.560486 309.393921,943.915894 
	C307.317291,940.990479 305.374817,937.884888 301.865051,935.318970 
	C299.126801,941.976379 297.838928,948.636292 296.455414,955.199280 
	C295.301941,960.671082 293.520935,966.182129 294.947235,972.797180 
M699.143799,868.659363 
	C700.505615,872.069702 702.567383,870.320129 704.319702,869.228821 
	C709.257935,866.153687 714.049377,862.840027 719.022644,859.824707 
	C723.984802,856.816162 728.944275,852.970520 734.848450,852.990112 
	C740.521851,853.008911 741.047485,850.504944 740.738647,846.050354 
	C739.589600,829.479553 737.716125,812.953918 737.542786,796.319214 
	C737.531067,795.191895 737.347412,793.985107 735.703491,793.099487 
	C725.670471,800.464172 714.242981,805.778381 702.871582,811.192078 
	C700.521240,812.310974 700.098633,814.214539 700.194519,816.549927 
	C700.897705,833.670105 700.279968,850.762817 699.143799,868.659363 
M326.334015,818.733032 
	C325.633392,828.514465 324.967773,838.298523 324.213013,848.075806 
	C323.951965,851.457458 325.193298,853.122131 328.739929,852.796936 
	C331.852264,852.511536 334.675110,853.563538 337.294434,855.090820 
	C342.755859,858.275330 348.111572,861.643066 353.605530,864.768982 
	C357.411896,866.934631 360.905731,869.753906 365.074066,871.207397 
	C366.137848,869.323486 365.777374,867.791565 365.695007,866.332458 
	C364.748932,849.575867 362.446808,832.850891 364.643158,816.026672 
	C364.975037,813.484436 363.581757,812.079651 361.409576,811.019531 
	C350.253052,805.575073 338.947418,800.404907 328.349152,793.026245 
	C326.355530,801.514465 327.905975,809.793945 326.334015,818.733032 
M486.861053,288.614929 
	C486.349060,291.898163 485.802032,295.176453 485.333771,298.465881 
	C484.706604,302.872040 483.130157,307.331635 485.330200,311.691284 
	C493.506592,327.894043 501.767548,344.054138 509.948303,360.254730 
	C511.661469,363.647308 514.240295,364.851288 518.027222,364.764191 
	C527.351624,364.549744 536.690491,364.464020 546.010071,364.756866 
	C550.560669,364.899841 552.980713,362.993530 554.921936,359.135864 
	C562.180542,344.711395 569.371460,330.239410 577.152954,316.096161 
	C582.591431,306.211365 578.868469,296.663635 577.473877,286.956635 
	C577.239746,285.326996 575.867981,284.386169 574.149780,284.582642 
	C572.116699,284.815094 572.020813,286.460083 572.128723,287.993011 
	C572.326965,290.810303 572.864990,293.617126 572.881531,296.430542 
	C572.906555,300.684814 575.291504,304.953156 573.173035,309.166107 
	C569.059814,317.345886 564.781738,325.442780 560.573181,333.574646 
	C558.881836,336.842712 556.326111,338.356842 552.522156,338.322083 
	C539.029419,338.198669 525.533997,338.190399 512.041565,338.326721 
	C508.419037,338.363312 506.049194,337.004333 504.400787,333.877441 
	C501.217010,327.838043 498.076019,321.768707 494.653778,315.864532 
	C491.628906,310.645874 489.763855,305.458160 491.516449,299.276093 
	C492.410553,296.122345 492.443481,292.696747 492.626709,289.380798 
	C492.718475,287.720184 493.593018,285.336456 490.984650,284.814545 
	C488.866791,284.390839 487.638702,285.877960 486.861053,288.614929 
M512.558960,1006.404053 
	C524.983765,1007.828003 537.447632,1006.850708 549.893066,1006.992615 
	C551.862305,1007.015076 552.865967,1005.620911 553.403076,1003.950928 
	C557.003296,992.755798 560.578369,981.633423 551.571960,971.012939 
	C549.712646,968.820251 548.173218,967.161560 545.146484,967.192200 
	C536.661865,967.278015 528.175781,967.226135 519.690308,967.240784 
	C518.183899,967.243408 516.424866,967.133362 515.500854,968.419678 
	C511.466125,974.036621 506.424133,979.418396 507.412933,987.045715 
	C508.241455,993.436646 509.523804,999.803406 512.558960,1006.404053 
M538.552979,233.912598 
	C538.254272,231.271942 537.941528,228.632797 537.659424,225.990372 
	C536.653931,216.574493 535.653748,207.158051 534.665161,197.740372 
	C534.502563,196.190994 534.295288,194.490814 532.370422,194.442886 
	C530.245483,194.389969 530.392334,196.262024 530.240906,197.729721 
	C529.899902,201.034271 529.578857,204.340927 529.227844,207.644394 
	C527.366821,225.159210 525.479553,242.671234 523.640137,260.188293 
	C522.235168,273.567749 520.884399,286.952911 519.517700,300.336365 
	C519.281006,302.654724 520.026917,304.620361 521.853821,306.082550 
	C525.895081,309.317047 537.066101,309.765930 542.014771,306.675934 
	C547.064697,303.522644 544.073059,298.554474 544.435181,294.350555 
	C544.462708,294.030365 544.306213,293.698608 544.274231,293.368408 
	C542.387207,273.853943 540.504211,254.339050 538.552979,233.912598 
M431.129333,368.603699 
	C434.641113,366.023712 438.043610,363.527771 438.374817,358.489471 
	C438.897705,350.535767 439.900330,342.614471 440.489075,334.663849 
	C440.764160,330.948761 438.597473,330.650116 436.107117,332.487915 
	C431.155212,336.142242 426.418213,340.086456 421.501007,343.789520 
	C417.628845,346.705597 413.736481,349.497284 411.930145,354.322327 
	C410.747894,357.480255 408.525604,360.027283 406.309692,362.516449 
	C396.303375,373.756653 385.182617,383.716125 372.552368,391.961121 
	C370.601593,393.234589 368.065216,394.184570 367.784180,397.094574 
	C368.314850,397.335114 368.657806,397.643616 368.899689,397.578217 
	C380.551178,394.428711 392.479187,393.773407 404.460419,393.616364 
	C406.328461,393.591888 407.688232,392.724518 408.553040,391.201843 
	C413.886169,381.811829 422.283875,375.491455 431.129333,368.603699 
M642.197998,375.280518 
	C647.364502,379.319763 651.829773,384.014221 655.104492,389.715027 
	C656.798950,392.664764 659.115295,393.823822 662.477905,393.730530 
	C671.317627,393.485260 680.091736,394.225708 688.820496,395.717651 
	C691.302063,396.141815 693.588562,398.187714 696.656799,396.889648 
	C696.026245,393.301575 693.017883,392.171478 690.682983,390.593903 
	C678.482788,382.350830 666.335083,373.691345 658.069641,361.483032 
	C650.619080,350.478149 641.713196,341.554291 630.796326,334.354919 
	C629.189270,333.295105 627.858276,331.567627 625.678833,331.721680 
	C624.233521,332.647247 624.327942,334.030212 624.423828,335.352448 
	C624.748230,339.829376 625.570923,344.319885 625.395508,348.773407 
	C624.966919,359.656494 629.287109,367.572296 638.926453,372.640411 
	C639.937744,373.172150 640.748230,374.085815 642.197998,375.280518 
M354.567322,759.866943 
	C349.810852,750.607483 345.054382,741.347961 340.143280,731.787537 
	C337.365265,735.294250 335.631104,738.749390 335.211761,742.847290 
	C333.872803,755.933533 333.229095,769.050171 333.125671,782.204529 
	C333.099884,785.480286 334.474854,787.410400 337.198334,788.966797 
	C350.076904,796.326477 363.530579,802.521301 376.954590,808.778015 
	C377.950317,809.242126 379.056915,809.960266 380.382050,808.845825 
	C381.721741,805.067139 379.036469,802.310730 377.288208,799.482300 
	C369.407318,786.732422 361.841400,773.808533 354.567322,759.866943 
M685.539856,808.988708 
	C700.403137,803.527405 714.343506,796.123901 728.255859,788.665161 
	C730.858032,787.270081 731.945068,785.074341 731.765442,782.073120 
	C730.991272,769.140015 730.523499,756.183777 729.461914,743.275574 
	C729.111816,739.018677 727.714722,734.707214 724.549500,730.879272 
	C720.114441,739.969604 716.111084,748.721680 711.637024,757.226196 
	C703.511536,772.671509 695.059021,787.939514 685.712097,802.699097 
	C684.588989,804.472534 681.992432,806.547546 685.539856,808.988708 
M725.920532,948.387634 
	C715.826782,961.404968 705.664856,974.370300 695.678711,987.469604 
	C692.471802,991.676270 688.661926,995.531189 686.921082,1000.733337 
	C685.318848,1005.521240 686.158264,1006.872375 691.034058,1007.017761 
	C693.694763,1007.097046 696.360046,1007.030762 699.023193,1007.017883 
	C701.228027,1007.007202 702.995544,1006.241150 703.545410,1003.915222 
	C705.094604,997.362610 709.327820,992.384705 713.220154,987.201111 
	C727.606750,968.041992 742.050903,948.925598 756.349976,929.701294 
	C760.873047,923.620178 760.422180,917.063416 755.079529,910.105774 
	C745.420227,922.782166 735.882324,935.299255 725.920532,948.387634 
M351.209106,986.322144 
	C354.634277,991.015625 359.153778,995.218079 360.448761,1001.004517 
	C361.634949,1006.304993 364.433258,1007.733826 369.282074,1007.108521 
	C371.086304,1006.875854 372.944153,1007.091919 374.774200,1007.019104 
	C378.073151,1006.887878 379.167023,1005.165405 378.327972,1002.024719 
	C377.274719,998.082153 375.276672,994.654114 372.715790,991.532654 
	C351.364777,965.507629 331.412781,938.405945 311.129913,911.558716 
	C310.564270,910.810059 310.147217,909.725220 308.860687,909.967102 
	C303.981110,918.667480 304.277832,923.838440 309.971710,931.410278 
	C323.586609,949.515747 337.177002,967.639648 351.209106,986.322144 
M336.292053,475.008667 
	C335.422455,455.867584 335.362091,436.774841 339.585938,417.925507 
	C340.421631,414.196136 338.506897,411.813263 335.756989,413.403900 
	C328.858124,417.394379 322.187195,421.357666 321.152710,430.879669 
	C318.877777,451.818970 318.332672,472.670563 321.245026,493.575134 
	C322.162750,500.162537 328.597595,507.341919 336.055939,509.072113 
	C337.905670,502.842957 341.377136,496.750732 339.295837,490.001312 
	C337.859070,485.342010 336.595337,480.773529 336.292053,475.008667 
M728.093079,481.067535 
	C727.788452,482.530060 727.802612,484.163452 727.125671,485.426453 
	C723.598022,492.007874 725.797058,498.436066 727.523926,504.834747 
	C728.082336,506.903870 729.598999,509.583649 732.063293,507.956909 
	C736.808044,504.824829 742.040100,501.930450 742.978699,495.226929 
	C745.970398,473.861786 745.690247,452.544220 743.435364,431.108856 
	C742.512146,422.332092 737.010559,418.090179 730.669556,413.970490 
	C729.320129,413.093781 727.676270,412.091461 726.122375,413.618652 
	C724.672424,415.043610 724.633362,416.700684 725.323547,418.662354 
	C726.197388,421.146454 726.979126,423.755341 727.201111,426.361450 
	C728.726074,444.266388 729.327942,462.197205 728.093079,481.067535 
M204.492645,1007.110596 
	C209.146866,1007.126953 213.802109,1007.092651 218.454803,1007.185730 
	C220.211578,1007.220825 221.805496,1007.104675 222.811844,1005.447510 
	C227.402176,997.889160 231.117340,989.890930 233.650909,981.447449 
	C234.778519,977.689636 231.775665,974.816956 229.358398,972.401672 
	C227.310730,970.355530 225.391617,972.843384 223.592087,973.686096 
	C219.985077,975.375305 216.507858,977.340637 212.968811,979.176086 
	C196.141144,987.903259 178.776840,995.468323 161.424606,1003.065491 
	C159.667526,1003.834778 157.307663,1004.109985 156.097946,1007.106934 
	C172.304047,1007.106934 187.899796,1007.106934 204.492645,1007.110596 
M635.974304,702.450989 
	C637.726624,701.494629 639.494934,700.566406 641.228760,699.577637 
	C659.902466,688.928101 677.205261,676.670349 688.666626,657.871887 
	C691.712158,652.876648 693.789734,647.379517 694.041565,641.174988 
	C678.275085,654.850525 664.304993,670.283325 647.655151,682.750244 
	C630.711914,695.436768 610.802490,702.040955 591.328491,710.000610 
	C592.573792,712.530579 593.664368,714.408691 594.443604,716.408142 
	C595.629150,719.450073 597.459717,719.812866 600.313538,718.591003 
	C612.084045,713.551514 623.956116,708.743958 635.974304,702.450989 
M835.937561,992.636719 
	C837.418030,995.985596 839.000305,999.294067 840.349487,1002.695007 
	C841.627808,1005.917725 843.782043,1007.144226 847.269165,1007.120422 
	C865.918335,1006.992981 884.568848,1007.060364 903.218628,1006.998718 
	C904.687927,1006.993835 906.461548,1007.574890 907.947571,1005.631287 
	C906.050110,1004.681763 904.472656,1003.804260 902.827026,1003.082275 
	C882.093506,993.986816 861.531128,984.540161 841.644714,973.678894 
	C836.326843,970.774414 835.273010,971.206360 832.354431,976.493408 
	C831.222473,978.544067 830.965454,980.524658 831.863098,982.693054 
	C833.136230,985.768250 834.356262,988.865417 835.937561,992.636719 
M431.612335,692.009094 
	C408.193298,678.953430 390.713684,658.744873 371.022736,641.019043 
	C369.953461,642.839478 370.776428,644.034973 371.111237,645.279480 
	C374.720795,658.695862 383.170288,668.867920 393.190765,677.917419 
	C412.405365,695.269958 435.296051,706.395081 458.899841,716.213196 
	C468.439575,720.181213 468.532745,719.959961 472.942780,710.520447 
	C473.000183,710.397583 472.904724,710.203247 472.821686,709.648804 
	C459.305695,704.231628 445.209198,699.615234 431.612335,692.009094 
M303.387238,804.735901 
	C301.786682,816.248596 311.505707,821.241760 317.234680,828.817261 
	C320.111481,797.733643 322.904877,766.855591 326.769409,735.206482 
	C317.170868,740.289368 311.059021,746.298279 309.292999,756.352295 
	C306.527527,772.095947 305.120728,787.977844 303.387238,804.735901 
M751.602173,825.042236 
	C756.409912,818.799866 762.898804,813.400513 761.650940,804.201050 
	C759.416626,787.729004 758.054810,771.154297 755.210327,754.744934 
	C753.505371,744.909546 746.660400,740.439575 737.960266,735.247375 
	C742.225403,767.113953 745.002625,797.898010 746.656189,828.879578 
	C749.486389,828.511047 750.015442,826.679321 751.602173,825.042236 
M283.496887,995.122009 
	C270.788879,989.996155 258.791016,983.303406 246.272354,977.384460 
	C241.955505,987.466797 237.953094,996.814758 233.560394,1007.074280 
	C240.431427,1007.074280 246.211456,1007.072327 251.991501,1007.074829 
	C263.790283,1007.079773 275.589111,1007.113647 287.387787,1007.081238 
	C292.653381,1007.066772 293.042603,1006.250916 291.705353,1001.180298 
	C290.636566,997.127747 287.021271,996.892822 283.496887,995.122009 
M788.535950,992.182800 
	C784.674255,993.732239 780.784363,995.215576 776.958923,996.849854 
	C773.294128,998.415527 772.351929,1002.014648 772.763428,1005.171631 
	C773.161926,1008.227905 776.595703,1006.937256 778.715210,1006.968018 
	C788.710083,1007.113037 798.707703,1007.078308 808.704346,1007.088257 
	C814.368896,1007.093933 820.033630,1007.079407 825.697998,1007.039490 
	C828.417725,1007.020325 830.735352,1006.063049 829.494812,1002.905945 
	C826.172241,994.450378 822.504028,986.130676 818.814209,977.380249 
	C808.609985,982.391052 798.927429,987.145752 788.535950,992.182800 
M612.662170,340.137543 
	C611.972412,340.858185 611.312683,341.610657 610.588440,342.294800 
	C598.478271,353.733215 591.205994,368.320679 584.122925,383.020538 
	C583.155884,385.027435 582.387329,387.776306 585.331726,388.369904 
	C589.286255,389.167114 593.563965,389.992889 596.994934,386.351593 
	C603.260620,379.701935 609.630432,373.150360 615.968201,366.568909 
	C617.517883,364.959564 618.677002,363.222626 618.460632,360.836121 
	C617.860657,354.219391 617.297180,347.599396 616.711548,340.981354 
	C616.455627,338.089325 615.122253,338.018219 612.662170,340.137543 
M457.883606,346.618103 
	C455.261597,344.222015 453.529633,340.782654 450.154449,339.559631 
	C448.205566,340.291656 448.237762,341.751129 448.089233,343.023041 
	C447.454376,348.460022 446.936188,353.910828 446.281921,359.345306 
	C445.845703,362.968750 447.007568,365.831207 449.863037,368.093384 
	C456.016754,372.968414 461.095795,378.938568 466.299561,384.739197 
	C469.263855,388.043518 472.518066,389.316559 476.822968,388.920837 
	C481.568115,388.484650 482.728912,387.209381 480.575500,382.991486 
	C474.167206,370.439423 468.376038,357.470673 457.883606,346.618103 
M348.468628,700.036194 
	C351.185425,695.270508 354.011230,690.563110 356.595032,685.726379 
	C361.175781,677.151489 358.359467,668.484924 357.463226,659.204590 
	C352.285583,661.560364 348.841125,664.661743 345.129395,667.406738 
	C341.958344,669.751953 340.222046,672.675293 339.722229,676.511597 
	C338.628845,684.903381 337.058258,693.258789 336.483215,701.683716 
	C336.061157,707.867432 334.426605,714.073547 335.830872,721.700073 
	C340.305817,714.002686 344.187439,707.325806 348.468628,700.036194 
M449.156647,546.642883 
	C451.488281,541.493530 453.823975,536.346069 456.150421,531.194458 
	C458.487976,526.018188 457.785004,524.685425 452.114746,524.434692 
	C441.153839,523.949890 430.186005,523.608704 419.218506,523.297974 
	C417.168121,523.239868 414.594330,522.500305 413.549530,525.163879 
	C412.556396,527.695679 414.647339,529.152527 416.159729,530.617798 
	C423.602783,537.828979 432.434387,543.258911 440.622894,549.513733 
	C445.032959,552.882385 445.964264,552.528137 449.156647,546.642883 
M613.590576,541.976196 
	C613.995850,542.887024 614.416077,543.791565 614.804199,544.709656 
	C617.953552,552.159973 619.911926,552.661926 626.496643,547.719055 
	C632.476196,543.230347 638.502014,538.802124 644.428101,534.244019 
	C646.656677,532.529846 648.920898,530.740967 650.703674,528.598938 
	C652.949463,525.900574 651.762939,523.419617 648.249268,523.182495 
	C645.606079,523.004150 642.933350,523.198975 640.276550,523.300354 
	C631.150024,523.648376 622.020691,523.948792 612.900635,524.425842 
	C607.371765,524.715149 606.450256,526.439026 608.765869,531.298157 
	C610.337463,534.596130 611.800964,537.945496 613.590576,541.976196 
M728.669128,721.683289 
	C728.999146,721.996277 729.341248,722.587891 729.634521,721.662964 
	C729.682373,721.511963 729.651306,721.331299 729.637268,721.166016 
	C728.613464,709.079041 727.118042,697.008789 726.690430,684.900818 
	C726.236633,672.050903 719.281433,664.726440 707.524231,659.486755 
	C706.274414,668.636230 703.834900,677.367065 708.214294,685.629456 
	C714.598328,697.673889 721.651794,709.363464 728.669128,721.683289 
M720.843628,449.322876 
	C720.439331,442.027283 720.095459,434.727661 719.610046,427.437469 
	C719.271545,422.354340 716.143799,418.914795 711.387268,418.032501 
	C712.075073,441.414429 712.763367,464.810944 713.464233,488.634186 
	C717.498474,486.929169 720.463257,484.594574 720.554749,480.600189 
	C720.786255,470.492432 722.789673,460.394012 720.843628,449.322876 
M350.204498,418.835205 
	C348.001617,420.628174 345.666718,422.351776 345.420898,425.518188 
	C343.992096,443.923309 342.184814,462.326569 344.344574,480.795502 
	C344.816650,484.832520 347.169891,487.222107 351.183716,487.873657 
	C352.204926,486.205597 351.883423,484.677979 351.877991,483.202789 
	C351.821747,467.895569 351.146301,452.580719 352.709320,437.298370 
	C353.250336,432.008270 353.603119,426.695953 353.906006,421.386017 
	C354.020477,419.379242 354.186066,416.883453 350.204498,418.835205 
z"/>
<path fill="#f0f2f8" opacity="1.000000" stroke="none" 
	d="
M197.531342,1.000001 
	C197.161209,1.515114 196.322418,2.030227 195.193115,2.723751 
	C198.240311,5.107195 201.198425,7.372822 204.100067,9.708601 
	C205.841843,11.110701 207.397629,12.738029 206.483109,15.234191 
	C205.668304,17.458220 203.873718,18.747177 201.562195,18.947432 
	C196.919846,19.349615 192.254913,19.891180 187.610214,19.802643 
	C151.968216,19.123232 116.331200,19.313599 80.687820,19.790684 
	C62.373577,20.035820 44.049366,19.531469 25.729603,19.372166 
	C19.515692,19.318130 19.332399,19.485237 19.317780,25.839788 
	C19.196280,78.649712 19.084936,131.459656 18.971533,184.269592 
	C18.961327,189.022430 18.491491,193.712753 16.933039,198.445953 
	C14.165283,186.629074 10.226883,175.404541 2.734613,165.652603 
	C0.986603,169.844559 2.803045,174.778412 1.192952,179.637878 
	C1.000000,120.402809 1.000000,60.805622 1.000000,1.000000 
	C66.354080,1.000000 131.708374,1.000000 197.531342,1.000001 
z"/>
<path fill="#f0f2f8" opacity="1.000000" stroke="none" 
	d="
M676.531372,1.000000 
	C674.265076,2.639873 671.106506,1.610709 666.665833,2.750681 
	C678.696716,4.490365 688.108154,9.520761 698.167725,12.282012 
	C697.943420,15.466823 695.952026,15.822083 694.295898,16.394169 
	C689.547424,18.034473 684.666321,18.947380 679.616394,19.055471 
	C657.649292,19.525660 635.684021,19.520348 613.712158,19.556038 
	C574.251099,19.620138 534.786621,19.928139 495.322571,19.931099 
	C469.356537,19.933044 443.390259,19.989109 417.424500,19.901623 
	C392.587646,19.817942 367.924133,17.393269 343.337494,14.062586 
	C342.238342,13.913689 341.026337,14.040568 339.065857,11.633392 
	C361.415649,9.449319 382.170685,3.895815 403.668365,2.747445 
	C398.406097,1.363666 392.962677,2.673331 387.370941,1.175584 
	C483.354218,1.000000 579.708435,1.000000 676.531372,1.000000 
z"/>
<path fill="#f0f2f8" opacity="1.000000" stroke="none" 
	d="
M929.531372,1.000000 
	C925.236816,3.060520 920.103821,1.386863 914.219482,2.618028 
	C918.270081,3.106989 921.344543,3.772167 924.421997,3.786372 
	C930.238831,3.813222 933.947693,7.419109 937.515015,11.141957 
	C940.037476,13.774366 938.695251,15.960750 935.899353,17.546572 
	C931.937561,19.793646 927.454773,19.720951 923.223267,19.734606 
	C889.250732,19.844225 855.252319,20.884901 821.320007,18.790607 
	C810.059143,18.095585 798.877869,16.000172 787.537903,15.642760 
	C784.830322,15.557425 781.884277,15.296449 779.330811,12.668148 
	C794.721863,10.246078 809.883545,6.969284 825.098511,2.453840 
	C821.788330,2.063999 818.753601,1.706594 815.359436,1.174594 
	C853.020874,1.000000 891.041809,1.000000 929.531372,1.000000 
z"/>
<path fill="#f0f2f8" opacity="1.000000" stroke="none" 
	d="
M610.657349,123.432472 
	C621.354370,139.428467 626.487976,156.842133 626.029297,175.591858 
	C625.466125,198.613419 617.088074,218.703751 601.130066,235.462296 
	C599.895813,236.758469 598.354797,237.891876 596.748657,238.674728 
	C594.277405,239.879211 591.855957,239.409515 589.897949,237.383987 
	C587.922302,235.340195 587.590881,232.930359 588.996460,230.515701 
	C589.989075,228.810501 591.269897,227.240677 592.596313,225.767334 
	C602.617493,214.635834 609.625671,201.940887 612.012268,187.056763 
	C615.943726,162.538910 609.461670,140.957718 593.059143,122.333702 
	C591.855286,120.966797 590.527466,119.649689 589.613098,118.099564 
	C587.734558,114.914993 587.481873,111.638199 590.778687,109.200684 
	C593.824463,106.948753 596.666626,107.877747 599.276794,110.372948 
	C603.384583,114.299759 606.986206,118.653061 610.657349,123.432472 
z"/>
<path fill="#f0f2f8" opacity="1.000000" stroke="none" 
	d="
M475.860809,116.318024 
	C473.919495,120.954094 470.133026,123.666245 467.437836,127.244980 
	C444.411377,157.820312 446.307434,197.475784 472.277405,225.597198 
	C473.179718,226.574234 474.116455,227.540405 474.875519,228.624756 
	C476.806335,231.382812 478.084229,234.331818 475.177368,237.166122 
	C472.146606,240.121170 468.789429,239.738708 465.743835,237.190506 
	C459.668640,232.107559 454.728088,225.912674 451.077271,219.005936 
	C433.776917,186.276245 434.032532,154.058029 454.748901,122.701057 
	C457.707977,118.222076 461.546692,114.519516 465.311157,110.749817 
	C467.409760,108.648285 469.660431,106.917709 472.802094,108.392258 
	C476.052063,109.917633 476.720032,112.667068 475.860809,116.318024 
z"/>
<path fill="#f0f2f8" opacity="1.000000" stroke="none" 
	d="
M484.097839,187.886047 
	C485.850769,193.593933 488.698120,198.264740 492.060760,202.653412 
	C493.174622,204.107178 494.363739,205.508011 495.405182,207.011520 
	C497.507751,210.047012 498.291016,213.429749 495.173950,215.993912 
	C492.067749,218.549179 488.482880,217.880997 485.702240,215.069382 
	C479.041931,208.334976 474.080383,200.527710 471.476562,191.334686 
	C465.787903,171.250641 468.728760,152.808167 481.947693,136.325226 
	C482.572113,135.546616 483.233704,134.794189 483.920288,134.069641 
	C488.294250,129.454208 492.025360,128.468521 495.104797,131.095703 
	C498.365448,133.877487 497.673096,137.504715 493.358307,142.732788 
	C482.419922,155.986450 478.824219,170.847382 484.097839,187.886047 
z"/>
<path fill="#f0f2f8" opacity="1.000000" stroke="none" 
	d="
M576.939209,196.896790 
	C586.866394,178.548233 584.870422,158.651321 571.761353,142.957535 
	C567.208801,137.507339 566.637512,134.140274 569.782104,131.292252 
	C572.904114,128.464706 576.807190,129.357361 581.314941,134.367981 
	C601.158752,156.425400 600.977234,192.299332 579.828796,214.518127 
	C576.637146,217.871338 572.104736,218.382294 569.564758,215.784119 
	C566.284729,212.428970 567.679871,209.092941 570.061584,205.929031 
	C572.264648,203.002457 574.509766,200.107574 576.939209,196.896790 
z"/>
<path fill="#f0f2f8" opacity="1.000000" stroke="none" 
	d="
M473.928040,506.126343 
	C470.864563,508.869934 467.578949,509.572540 463.919525,509.442169 
	C441.628510,508.647949 419.343811,507.784180 397.140533,505.499084 
	C393.667023,505.141632 390.142578,505.181458 386.697205,504.666168 
	C376.228821,503.100403 369.383545,496.631348 367.674255,485.978149 
	C365.125702,470.094482 365.890350,454.116272 367.233917,438.162689 
	C367.401459,436.173279 367.638275,434.186462 367.719299,432.193420 
	C368.302948,417.833862 376.380188,409.907104 390.715820,408.598236 
	C415.753998,406.312225 440.938171,405.968781 465.903961,402.887634 
	C473.176422,401.990143 478.306824,405.829926 482.555725,410.361908 
	C488.836456,417.061096 496.040894,419.046631 504.933044,418.839661 
	C524.752808,418.378387 544.591431,418.500732 564.418457,418.727600 
	C569.975830,418.791168 574.512573,417.223480 578.524780,413.607117 
	C580.751404,411.600220 583.007751,409.626038 585.219482,407.602997 
	C589.252625,403.914062 593.900146,402.362854 599.416931,402.797699 
	C625.635376,404.864197 651.870239,406.725037 678.085510,408.830078 
	C686.916260,409.539215 695.321411,418.363037 696.426575,427.208954 
	C698.639160,444.919586 699.466187,462.650940 698.292419,480.492126 
	C697.303284,495.526520 687.729248,504.514130 672.838074,505.428162 
	C650.080017,506.825043 627.346069,508.583191 604.561157,509.603882 
	C598.602783,509.870789 593.471436,508.921967 588.899170,504.822021 
	C582.327148,498.928833 575.438965,493.389771 568.796692,487.572876 
	C564.708984,483.993103 560.076599,482.228973 554.663269,482.240112 
	C539.666260,482.270996 524.668884,482.286041 509.672150,482.208282 
	C504.736267,482.182709 500.556549,483.946075 496.858215,487.009674 
	C489.290710,493.278381 481.772339,499.606445 473.928040,506.126343 
M384.312408,455.246277 
	C383.939270,455.770844 383.566132,456.295380 383.005951,457.005219 
	C383.005951,457.005219 382.819122,457.190704 382.401825,457.284058 
	C381.106567,458.296143 382.049988,458.620117 383.766205,458.932587 
	C384.333252,458.896576 384.900299,458.860535 385.904846,458.595337 
	C386.265015,458.060638 386.625183,457.525940 387.374268,456.779968 
	C388.576630,456.148346 388.370575,455.600647 386.450134,455.085632 
	C385.902130,455.088867 385.354126,455.092102 384.312408,455.246277 
M526.881653,466.108124 
	C526.881653,466.108124 526.797668,466.037476 526.762085,465.368317 
	C526.734924,464.922791 526.707825,464.477264 526.480713,463.304657 
	C526.230896,459.171387 526.485107,455.052826 527.955383,451.180237 
	C528.735046,449.126648 529.307129,447.119965 527.542358,445.686493 
	C522.759338,441.801392 523.282593,437.067444 525.094727,432.167358 
	C526.119080,429.397461 524.989197,428.041473 522.619141,427.239563 
	C521.050232,426.708740 519.414062,426.360260 517.790527,426.011810 
	C516.126282,425.654633 513.697510,423.864380 513.006409,426.116577 
	C512.461731,427.891541 511.175262,430.510101 513.160706,432.515808 
	C516.357910,435.745544 515.881897,439.020905 513.678162,442.586395 
	C511.167603,446.648438 511.429352,452.348358 514.744568,454.688416 
	C519.073975,457.744415 517.959412,460.092072 514.748840,462.851410 
	C513.775452,463.688019 513.015564,464.773132 512.068054,465.846252 
	C515.993042,467.041229 518.054199,469.448486 518.362976,472.863861 
	C524.244751,474.866394 524.741821,469.638397 527.297485,467.044281 
	C527.559875,467.071808 528.047729,467.143250 528.052246,467.120544 
	C528.236389,466.175415 527.412720,466.400696 526.881653,466.108124 
M438.747192,477.992981 
	C432.832428,475.137634 428.680023,470.597046 425.543182,464.864258 
	C421.920990,458.244568 415.816711,454.654968 408.706543,452.087250 
	C409.723328,453.630280 408.397705,454.942413 408.643860,456.081787 
	C409.549347,460.272980 407.372192,462.092010 404.034424,463.965973 
	C394.827332,469.135101 387.323273,476.450043 380.784912,484.607452 
	C375.835297,490.782654 377.774445,495.176422 385.605194,497.073486 
	C386.572205,497.307709 387.556458,497.537659 388.544312,497.609070 
	C407.439423,498.974976 426.330231,500.411499 445.236053,501.611359 
	C451.701538,502.021698 458.207306,501.957581 464.691315,501.867218 
	C470.280243,501.789398 475.907745,496.281830 477.745392,489.732483 
	C478.852753,485.785889 474.468506,483.972931 471.992035,481.822327 
	C468.774170,479.027924 464.682434,480.193054 460.944611,480.703033 
	C453.550964,481.711700 446.352142,481.472900 438.747192,477.992981 
M662.419922,498.743530 
	C668.208618,498.126160 674.077332,497.913147 679.765625,496.787933 
	C686.703003,495.415619 688.257568,490.176605 684.050415,484.624817 
	C679.795471,479.009918 674.237061,474.669647 669.635254,469.409119 
	C666.790100,466.156860 663.470947,463.928802 658.958191,463.904388 
	C656.280823,463.889923 653.756104,463.238708 651.333679,462.022583 
	C644.962585,458.824127 642.776367,459.459320 639.033630,465.521515 
	C632.438049,476.204529 622.944641,481.635559 610.332825,481.253754 
	C606.516541,481.138184 602.715820,480.572998 598.901978,480.297760 
	C594.344421,479.968811 588.344666,483.036804 587.146240,487.111755 
	C585.833191,491.575989 588.487000,494.969971 591.761047,497.844116 
	C595.325684,500.973328 599.325256,502.180145 604.136658,502.038696 
	C623.286743,501.475708 642.403870,500.456055 662.419922,498.743530 
M485.267212,424.581451 
	C481.086975,422.266571 476.964172,419.839264 472.711029,417.667114 
	C468.082550,415.303223 462.075226,417.139313 458.279572,421.841003 
	C455.392944,425.416656 455.303436,430.868256 458.345551,434.743195 
	C461.000427,438.124908 463.552673,441.739868 466.808868,444.464691 
	C473.300903,449.897308 480.731110,453.310944 489.576324,451.988159 
	C493.684998,451.373718 499.388062,443.451813 498.614899,439.452515 
	C498.524994,438.987579 498.357239,438.211731 498.097656,438.153839 
	C493.211365,437.064880 493.557068,432.143402 491.442688,429.057953 
	C489.988037,426.935211 489.112762,424.322113 485.267212,424.581451 
M568.922241,441.692352 
	C568.952881,442.524017 568.982483,443.355713 569.014343,444.187347 
	C569.273376,450.951660 569.767578,451.526459 576.360596,452.140625 
	C582.902039,452.750031 588.326538,451.158539 594.300232,447.475159 
	C600.861267,443.429657 604.206909,438.091705 606.757812,431.759430 
	C608.117554,428.384155 609.287842,424.175690 605.999268,421.007416 
	C602.657532,417.788025 593.221619,417.233063 588.845154,419.360565 
	C579.361267,423.971008 572.413696,430.854736 568.922241,441.692352 
M454.517120,466.289398 
	C457.508148,464.434753 459.002533,461.842743 458.143707,458.300934 
	C457.508759,455.682465 455.905182,453.804810 453.110382,453.391571 
	C450.322205,452.979340 447.715851,453.468872 446.054596,456.027557 
	C444.579132,458.299988 444.576813,460.825012 445.764465,463.178772 
	C447.437897,466.495361 450.356262,467.259979 454.517120,466.289398 
M615.537598,453.715515 
	C609.997498,452.806458 607.080200,454.300842 606.311401,458.441650 
	C605.565735,462.458099 607.793335,465.604401 611.950806,466.369629 
	C615.204407,466.968475 617.496277,465.473175 618.881775,462.723969 
	C620.707336,459.101288 619.094543,456.350433 615.537598,453.715515 
M384.593079,442.583313 
	C385.526062,441.534363 387.038208,440.907990 387.103424,439.255951 
	C384.541077,437.934143 383.237793,440.622925 380.735931,441.090607 
	C382.072266,441.818878 382.355713,443.513031 384.593079,442.583313 
z"/>
<path fill="#f0f2f8" opacity="1.000000" stroke="none" 
	d="
M816.181030,891.911499 
	C819.152710,898.082214 822.032837,903.884644 824.764282,909.756409 
	C827.992371,916.695312 827.187683,919.027466 820.552490,922.582153 
	C819.091309,923.364929 817.575989,924.047852 816.076965,924.758545 
	C812.620789,926.396973 809.825806,925.503906 808.057617,922.219238 
	C800.423096,908.037048 792.880676,893.805298 785.317627,879.584717 
	C784.678345,878.382751 784.221313,876.980896 784.742798,875.735962 
	C787.268982,869.705627 793.335205,869.547607 798.392700,867.996582 
	C801.843384,866.938354 804.476257,868.879395 806.086365,872.031433 
	C809.410706,878.539490 812.712585,885.059082 816.181030,891.911499 
z"/>
<path fill="#f0f2f8" opacity="1.000000" stroke="none" 
	d="
M276.502625,886.412292 
	C270.269043,898.221313 264.138611,909.663513 258.171722,921.190430 
	C255.927338,925.526062 252.773483,926.222839 248.654770,924.306702 
	C246.695953,923.395386 244.704941,922.510986 242.869751,921.384277 
	C237.546310,918.116150 237.054153,915.910645 239.938522,910.241699 
	C246.202011,897.931213 252.424667,885.599854 258.635742,873.262817 
	C261.366577,867.838562 263.543274,866.862732 269.453461,868.565552 
	C281.830322,872.131470 282.815735,874.522705 276.502625,886.412292 
z"/>
<path fill="#f0f2f8" opacity="1.000000" stroke="none" 
	d="
M554.636108,725.656250 
	C560.186584,724.948975 565.200623,723.620300 570.392273,723.686646 
	C576.003662,723.758423 578.222046,726.471008 576.932007,732.016724 
	C575.497253,738.184814 573.193420,744.082092 570.788025,749.923706 
	C567.307861,758.375366 563.722839,766.783936 560.165649,775.203735 
	C558.601501,778.905884 555.897034,780.870361 551.780762,781.232178 
	C538.828003,782.370605 525.888245,782.276184 512.939392,781.270264 
	C509.295197,780.987183 506.631989,779.249817 505.122162,775.939148 
	C498.635864,761.716370 492.493774,747.343994 488.189514,732.289124 
	C486.411255,726.069397 488.637054,723.311401 495.037140,723.741455 
	C508.618500,724.653931 522.076111,727.305969 535.767761,726.692993 
	C541.908447,726.418030 548.043701,726.019409 554.636108,725.656250 
M507.544464,762.029541 
	C508.242218,763.721741 509.039246,765.380737 509.618713,767.112488 
	C511.217529,771.890747 514.199585,774.477661 519.512817,774.381409 
	C525.497375,774.273010 531.512756,774.284851 537.473022,774.763794 
	C547.584900,775.576050 554.472351,772.650269 557.601501,761.880493 
	C560.500427,751.903381 565.678650,742.640198 568.725525,731.548889 
	C544.449890,734.176819 520.843567,735.026367 496.508575,731.256897 
	C499.368195,742.345032 503.522400,751.760376 507.544464,762.029541 
z"/>
<path fill="#f0f2f8" opacity="1.000000" stroke="none" 
	d="
M384.985565,456.985077 
	C385.072510,457.399078 385.159485,457.813080 385.356873,458.525818 
	C384.900299,458.860535 384.333252,458.896576 383.311707,458.654053 
	C382.844482,457.980560 382.831787,457.585632 382.819122,457.190704 
	C382.819122,457.190704 383.005951,457.005219 383.401855,456.939209 
	C384.203552,456.920441 384.609375,456.967712 385.008148,457.007965 
	C385.001129,457.000946 384.985565,456.985077 384.985565,456.985077 
z"/>
<path fill="#f0f2f8" opacity="1.000000" stroke="none" 
	d="
M386.862335,455.095825 
	C387.211823,455.528992 387.149109,455.951996 387.049316,456.693939 
	C386.561646,457.019623 386.111084,457.026306 385.323059,457.009033 
	C384.985565,456.985077 385.001129,457.000946 384.966797,456.688324 
	C384.890381,455.948914 384.848267,455.522156 384.806152,455.095367 
	C385.354126,455.092102 385.902130,455.088867 386.862335,455.095825 
z"/>
</svg>